<svg width="119" height="28" xmlns="http://www.w3.org/2000/svg"><g fill="none" fill-rule="evenodd"><g><circle fill="#4D96A9" cx="7" cy="21" r="7"/><circle fill="#855FB1" cx="21" cy="7" r="7"/></g><path d="M44.121 25.676V13.95c.316-.41.701-.718 1.154-.923a3.677 3.677 0 011.533-.308c.822 0 1.48.286 1.976.859.495.572.743 1.323.743 2.251v9.848h5.121v-10.56c0-.195-.005-.384-.016-.567a8.383 8.383 0 00-.047-.535c.337-.41.738-.729 1.201-.956.464-.226.98-.34 1.55-.34.821 0 1.48.286 1.975.859.495.572.743 1.323.743 2.251v9.848h5.121v-10.56c0-2.009-.606-3.661-1.817-4.957-1.212-1.296-2.767-1.944-4.663-1.944-1.096 0-2.108.206-3.035.616a6.956 6.956 0 00-2.403 1.75 6.042 6.042 0 00-2.134-1.734c-.853-.42-1.796-.632-2.829-.632-.78 0-1.523.12-2.229.357a6.264 6.264 0 00-1.944 1.069V8.539H39v17.137h5.121zM76.556 26c1.39 0 2.64-.205 3.746-.615 1.106-.41 2.186-1.07 3.24-1.977l-3.382-3.077c-.4.41-.885.729-1.455.956a5.082 5.082 0 01-1.896.34c-.97 0-1.813-.254-2.53-.762a4.508 4.508 0 01-1.58-1.96h11.918V17.61c0-1.34-.21-2.586-.632-3.742-.422-1.155-1.007-2.143-1.755-2.964a8.225 8.225 0 00-2.671-1.943c-1.033-.476-2.16-.713-3.383-.713a8.657 8.657 0 00-3.43.68 8.445 8.445 0 00-2.766 1.879 8.9 8.9 0 00-1.849 2.835 8.985 8.985 0 00-.68 3.482c0 1.23.237 2.392.712 3.482a8.93 8.93 0 001.928 2.835 8.776 8.776 0 002.893 1.879 9.404 9.404 0 003.572.68zm3.035-10.755h-6.987c.253-.864.685-1.533 1.296-2.008.612-.475 1.339-.713 2.182-.713.822 0 1.543.248 2.165.745.622.497 1.07 1.155 1.344 1.976zM95.365 26c1.391 0 2.64-.205 3.746-.615 1.107-.41 2.187-1.07 3.24-1.977l-3.382-3.077c-.4.41-.885.729-1.454.956a5.082 5.082 0 01-1.897.34c-.97 0-1.812-.254-2.529-.762a4.508 4.508 0 01-1.58-1.96h11.918V17.61c0-1.34-.211-2.586-.633-3.742-.421-1.155-1.006-2.143-1.754-2.964a8.225 8.225 0 00-2.671-1.943c-1.033-.476-2.16-.713-3.383-.713a8.657 8.657 0 00-3.43.68 8.445 8.445 0 00-2.766 1.879 8.9 8.9 0 00-1.85 2.835 8.985 8.985 0 00-.68 3.482c0 1.23.238 2.392.712 3.482a8.93 8.93 0 001.929 2.835 8.776 8.776 0 002.892 1.879 9.404 9.404 0 003.572.68zM98.4 15.245h-6.986c.253-.864.685-1.533 1.296-2.008.611-.475 1.338-.713 2.181-.713.822 0 1.544.248 2.166.745.621.497 1.07 1.155 1.343 1.976zm15.87 10.658c.484 0 1.085-.049 1.802-.146.716-.097 1.306-.221 1.77-.372V21.14c-.422.13-.811.221-1.17.275a7.639 7.639 0 01-1.138.081c-.822 0-1.396-.156-1.723-.47-.326-.313-.49-.847-.49-1.603v-6.511H118V8.539h-4.679V3l-5.12 1.134v4.405h-3.383v4.374h3.382v7.548c0 1.792.511 3.147 1.533 4.065 1.022.918 2.535 1.377 4.537 1.377z" fill="#28283D" fill-rule="nonzero"/></g></svg>